<?xml version="1.0" encoding="utf-8"?>
<!-- Generator: Adobe Illustrator 18.0.0, SVG Export Plug-In . SVG Version: 6.00 Build 0)  -->
<!DOCTYPE svg PUBLIC "-//W3C//DTD SVG 1.1//EN" "http://www.w3.org/Graphics/SVG/1.1/DTD/svg11.dtd">
<svg version="1.1" id="Layer_1" xmlns="http://www.w3.org/2000/svg" xmlns:xlink="http://www.w3.org/1999/xlink" x="0px" y="0px"
	 viewBox="0 0 400 400" enable-background="new 0 0 400 400" xml:space="preserve">
<path fill="#FEC40E" stroke="#FFFFFF" stroke-width="4" d="M85,199c0-4.9,0.3-9.7,0.9-14.5c2.4-19.8,6.6-38.1,17.6-53.7
	C85.1,118.2,70,97.1,70,73.1V73c-16,38.7-21.9,80.2-23.1,118.9C45.5,236.9,57.2,285,76.1,330h0.1c23.6,0,44.6-14.5,57.3-32.5
	C104.1,276,85,238.3,85,199z"/>
<path fill="#E95149" stroke="#FFFFFF" stroke-width="4" d="M327.6,324c0,0.1-0.1,0.2-0.1,0.3c-45.1,18.9-90.1,30.5-135.2,29.1
	c-38.7-1.2-77.5-6.4-116.2-23.4h0.1c23.6,0,44.6-14.5,57.3-32.5c15.6,11.4,34.1,17.7,54.1,20.4c5.2,0.7,10.5,0.4,15.9,0.4
	c39.6,0,74.7-19.8,96.2-49.6C316.6,281.4,327.5,301.3,327.6,324z"/>
<path fill="#6EC652" stroke="#FFFFFF" stroke-width="4" d="M353.7,208.4c-1.2,38.6-10,77.1-26.1,115.7c-0.1-22.8-11-43-27.9-55.7
	c11.5-15.9,19.1-34.8,21.5-55.2c0.5-4.6,0.8-9.3,0.8-14.1c0-40.4-20.2-76.1-51-97.4C283.8,84.3,304.4,73,327.5,73
	C346.5,118.1,355.2,163.2,353.7,208.4z"/>
<g id="On_Page_Reference_9_">
	<path fill="#00ACE7" stroke="#FFFFFF" stroke-width="4" d="M327.5,73c-23.2,0-43.7,11.3-56.5,28.6c-16-11.1-34.9-18.4-55.3-20.5
		c-4-0.4-8.1-0.6-12.2-0.6c-40.1,0-78.7,19.9-100.1,50.4C85.1,118.2,70,97.1,70,73.1V73c45-18.9,93.1-27.6,138-26.2
		C246.8,47.9,288.7,56.7,327.5,73z"/>
</g>
<g id="On_Page_Reference_7_">
</g>
<g id="On_Page_Reference_4_">
</g>
<g id="On_Page_Reference_3_">
</g>
<g id="On_Page_Reference_8_">
</g>
<g id="On_Page_Reference_2_">
</g>
<g id="On_Page_Reference_6_">
</g>
<g id="On_Page_Reference_5_">
</g>
<g id="On_Page_Reference_1_">
</g>
<g id="On_Page_Reference">
	<path fill="#00ACE7" stroke="#FFFFFF" stroke-width="4" d="M241.1,228.3c0,29.6-24,53.5-53.5,53.5c-29.6,0-53.5-24-53.5-53.5
		c0-29.6,24-53.5,53.5-53.5C217.1,174.7,241.1,198.7,241.1,228.3z"/>
	<path fill="#6EC652" stroke="#FFFFFF" stroke-width="4" d="M224.1,174.7c0,25.8-20.9,46.8-46.8,46.8c-25.8,0-46.8-20.9-46.8-46.8
		c0-25.8,20.9-46.8,46.8-46.8C203.2,128,224.1,148.9,224.1,174.7z"/>
	<path fill="#FEC40E" stroke="#FFFFFF" stroke-width="4" d="M278.6,174.8c-5.4,20.9-26.7,33.4-47.5,28c-20.9-5.4-33.4-26.7-28-47.5
		c5.4-20.9,26.7-33.4,47.5-28C271.5,132.7,284,153.9,278.6,174.8z"/>
	<path fill="#E95149" stroke="#FFFFFF" stroke-width="4" d="M275.7,229c2.9,16.2-7.8,31.7-24,34.6c-16.2,2.9-31.7-7.8-34.6-24
		c-2.9-16.2,7.8-31.7,24-34.6C257.3,202,272.8,212.8,275.7,229z"/>
</g>
</svg>
